<?xml version="1.0" encoding="UTF-8" standalone="no"?>
<!-- Created with Inkscape (http://www.inkscape.org/) -->

<svg
   version="1.1"
   id="svg2670"
   width="122.36135"
   height="80.539482"
   viewBox="0 0 122.36135 80.539482"
   xmlns="http://www.w3.org/2000/svg"
   xmlns:svg="http://www.w3.org/2000/svg">
  <defs
     id="defs2674" />
  <g
     id="g2676"
     transform="translate(-4.0922194,-47.164803)">
    <g
       id="g2802"
       transform="translate(1.6949156e-7,18.983051)">
      <path
         style="fill:#b9b9b9;fill-opacity:1;stroke-width:0.32"
         d="M 58.56,105.81457 C 56.36,104.18464 43.544,95.679277 30.08,86.913763 16.616,78.14825 5.2607494,70.648237 4.8461098,70.247069 L 4.0922192,69.517674 4.2825341,68.918045 C 4.5269648,68.14791 3.6775226,68.649347 19.68,59.828726 l 13.76,-7.584563 7.04,-4.470368 c 3.872,-2.458704 8.628122,-5.496496 10.569162,-6.750649 l 3.529158,-2.280279 0.630842,0.144851 0.630838,0.144852 6.88,-5.425408 6.88,-5.42541 7.607184,7.688408 7.607184,7.688406 0.580211,-0.18415 0.580208,-0.18415 18.852603,17.313827 c 10.36894,9.522608 19.47666,17.926745 20.2394,18.675865 l 1.38678,1.362036 -9.94678,4.421507 -9.94679,4.42151 v 2.278813 2.278813 l -2.08606,1.028681 c -2.44531,1.205837 -2.74448,1.238928 -3.51394,0.388682 -0.80294,-0.887242 -0.89425,-0.867066 -5.431014,1.2 l -4.0384,1.84 0.146428,0.989715 0.146429,0.989715 -2.495158,1.21653 -2.495162,1.21653 -1.39656,-0.67072 c -0.768109,-0.36889 -2.067689,-0.84813 -2.887952,-1.06496 l -1.491392,-0.39424 -8.903149,3.93736 c -4.896732,2.16555 -9.049606,3.98704 -9.228611,4.04776 C 62.706458,108.7284 60.76,107.4445 58.56,105.81457 Z"
         id="path2816" />
      <path
         style="fill:#a3a3a3;fill-opacity:1;stroke-width:0.32"
         d="M 56.494493,104.22143 50.428989,99.68 27.880931,84.96 C 15.479499,76.864 5.1789757,69.99 4.9908787,69.684448 L 4.6488838,69.128893 5.2844419,68.509344 C 5.6339987,68.168592 10.816,65.198659 16.8,61.909494 27.522975,56.015504 31.209626,53.786592 46.745344,43.804842 l 7.865341,-5.053511 0.614659,0.148611 0.614656,0.148612 6.946426,-5.4304 6.946422,-5.430398 7.499949,7.698359 7.499945,7.698359 0.612,-0.19424 0.612,-0.19424 19.181628,17.628281 c 10.5499,9.695559 19.65814,18.095367 20.24054,18.666243 l 1.0589,1.037959 -9.92562,4.412077 -9.92562,4.41208 -0.0933,2.266393 -0.0933,2.266391 -2.11902,1.1299 -2.11903,1.129901 -1.058,-0.815904 -1.058,-0.815904 -4.262977,1.937223 L 91.52,98.387853 v 1.048694 1.048693 l -2.376096,1.17572 -2.376096,1.17572 -1.223904,-0.80834 c -0.673146,-0.4446 -1.761645,-0.98527 -2.41888,-1.20151 l -1.194976,-0.39315 -0.725024,0.22572 c -0.398765,0.12415 -4.613024,1.95125 -9.365024,4.06024 -4.752,2.10898 -8.784,3.88147 -8.96,3.93886 -0.176,0.0574 -3.049478,-1.93929 -6.385507,-4.43707 z M 73.812566,77.923853 C 78.007654,77.133974 81.764,76.411229 82.16,76.317757 l 0.72,-0.169949 v -2.673117 -2.673117 l 1.624435,-2.040787 c 0.893437,-1.122432 1.73473,-2.15488 1.869539,-2.294329 l 0.245108,-0.25354 1.97046,2.547152 1.970458,2.547156 v 1.734499 1.734499 l 3.76,-0.73999 c 2.068,-0.406996 3.776435,-0.743645 3.796518,-0.748112 0.0201,-0.0045 0.105578,-2.159536 0.189981,-4.78904 l 0.153459,-4.780916 1.570022,-2.084476 c 1.92061,-2.549949 1.5092,-2.594196 3.89002,0.418348 l 2,2.530676 V 68.131357 71.68 l 0.56,-9.6e-4 c 0.60292,-9.6e-4 7.19171,-1.244077 7.33062,-1.382989 0.0957,-0.09574 -25.724258,-24.311917 -27.113132,-25.428979 l -0.91128,-0.732938 -0.621542,1.218324 -0.621543,1.21832 1.488439,2.248755 1.488438,2.248752 4.254285,2.221101 c 2.339859,1.221606 4.116905,2.266892 3.948995,2.322864 -0.167907,0.05597 -2.044122,-0.769888 -4.169363,-1.835239 C 89.428675,52.711651 87.615626,51.84 87.524922,51.84 87.434214,51.84 87.36,53.333894 87.36,55.159766 v 3.31977 L 87.84,59.84 c 0.660221,1.871264 0.590938,1.972547 -0.328349,0.48 L 86.72328,59.04 86.72168,54.987984 86.72,50.935965 85.092304,48.987984 83.464608,47.04 80.052304,47.0719 c -1.876768,0.01754 -3.717117,0.125542 -4.089664,0.24 l -0.677357,0.208102 -2.202643,2.685616 -2.20264,2.68562 -1.33344,0.51438 c -0.733389,0.282912 -1.424947,0.605943 -1.536794,0.717844 -0.16127,0.161356 -2.404115,23.288614 -2.408604,24.83654 -0.0016,0.535834 -0.413559,0.587821 8.211404,-1.036147 z"
         id="path2814" />
      <path
         style="fill:#8c8c8c;fill-opacity:1;stroke-width:0.32"
         d="M 53.76,102.1179 44.96,95.478714 25.654162,82.890662 C 5.3435149,69.64744 5.3727101,69.667699 5.630433,68.996083 5.720215,68.762115 9.2780963,66.656125 13.536836,64.316102 20.699212,60.38064 29.603984,54.886438 47.563344,43.321907 l 7.083344,-4.561161 0.596656,0.149187 0.596656,0.14919 6.784704,-5.289561 c 8.175219,-6.373647 6.014122,-6.720845 14.842826,2.384617 l 7.440921,7.674179 0.437344,-0.362963 0.437344,-0.362963 0.868432,0.801286 c 0.477635,0.440711 9.076429,8.331031 19.108429,17.534048 10.032,9.203018 18.78995,17.264458 19.46211,17.914311 l 1.22211,1.181555 -6.02211,2.646557 c -3.31216,1.455606 -7.78008,3.437321 -9.92871,4.403811 l -3.9066,1.757254 -0.0934,2.231933 -0.0934,2.23193 -2.12171,1.164627 -2.12171,1.164627 -1.07829,-0.820678 L 100,94.493014 l -4.24,1.932503 -4.24,1.932499 v 1.063613 1.063611 l -2.380099,1.1777 -2.380099,1.17771 -1.954864,-1.37126 -1.954868,-1.37126 -0.725481,0.18208 c -0.399018,0.10015 -4.820285,1.99813 -9.825037,4.21773 -5.004755,2.21961 -9.243552,4.08594 -9.419552,4.1474 -0.176,0.0615 -4.28,-2.87588 -9.12,-6.52744 z m 20.16,0.79216 8.16,-3.688758 0.197059,-1.545068 c 0.108384,-0.849786 0.293712,-6.57858 0.411843,-12.73065 0.118128,-6.15207 0.296064,-11.925725 0.395408,-12.830342 l 0.180628,-1.644759 1.582057,-1.955241 c 1.926589,-2.381037 1.660029,-2.407911 3.793005,0.38238 L 90.4,71.2 l 0.215475,4.90881 c 0.118515,2.699846 0.277923,4.971254 0.354243,5.047574 0.07632,0.07632 1.081296,0.400122 2.23328,0.719558 l 2.094519,0.580791 1.277289,1.011635 c 0.702512,0.556397 1.342695,1.011632 1.422628,1.011632 0.07994,0 0.224921,-4.673968 0.322192,-10.386598 l 0.176854,-10.386599 1.51896,-1.933401 c 1.87241,-2.383277 1.62893,-2.410352 3.91848,0.435724 l 1.90586,2.369127 0.23587,9.435238 c 0.12973,5.189379 0.32777,10.504461 0.44011,11.811293 l 0.20424,2.376054 8.88,-3.994732 c 4.884,-2.197101 8.86904,-4.078288 8.85564,-4.18042 C 124.1873,77.979776 85.793306,44.120211 85.156707,45.368051 l -0.637667,1.249927 1.50048,2.236108 1.50048,2.236106 4.102336,2.165901 c 2.256282,1.191248 4.029974,2.238265 3.941533,2.326707 -0.08844,0.08844 -1.981735,-0.779427 -4.207322,-1.928595 l -4.046518,-2.089395 0.119609,4.057596 c 0.06579,2.231677 0.236218,4.345594 0.37874,4.697594 l 0.259126,0.64 -0.68249,-0.96 -0.682489,-0.96 0.05714,-4.052483 0.05713,-4.05248 L 85.248397,49.005696 83.68,47.076352 79.628342,47.058176 75.576685,47.04 l -2.263651,2.838576 -2.263648,2.838576 -1.590736,0.684314 -1.590733,0.684316 -0.163914,1.037108 c -1.629811,10.312198 -4.59888,51.87595 -3.617885,50.64651 l 0.862477,-1.08091 0.867731,-5.211796 0.867728,-5.211795 1.574445,-2.829312 c 2.094173,-3.76328 2.237392,-3.385366 0.225242,0.594346 L 66.880947,95.2 l -0.200377,1.987373 -0.200378,1.987369 2.417485,-0.930889 2.417488,-0.930893 1.062416,0.151859 1.062419,0.151856 1.068707,-1.472966 c 0.587789,-0.810128 1.138394,-1.403274 1.223568,-1.318099 0.08517,0.08517 -0.292211,0.772028 -0.838637,1.526348 l -0.9935,1.371485 0.409932,0.217091 c 0.22546,0.119399 1.173703,0.395853 2.107204,0.61434 0.933497,0.218486 1.627417,0.4671 1.542041,0.552476 -0.08538,0.08538 -1.527174,-0.157312 -3.204,-0.539305 l -3.048768,-0.694535 -2.708355,1.028778 -2.708352,1.028778 -0.344918,1.980674 C 65.755213,103.00112 65.6,104.11102 65.6,104.3782 c 0,0.26718 -0.425661,1.07338 -0.945917,1.79158 l -0.945917,1.30579 1.025917,-0.43837 C 65.298339,106.79609 69.432,104.93888 73.92,102.91006 Z M 90.888454,98.404435 C 90.893094,97.521997 90.645808,91.22 90.338906,84.4 L 89.780902,72 H 89.250451 C 88.958704,72 88.27,72.09 87.72,72.2 l -1,0.2 v 14.173827 c 0,7.795607 0.08119,14.385403 0.180422,14.644003 l 0.18042,0.47017 1.89958,-0.83956 1.899578,-0.83957 0.0084,-1.604435 z M 65.626758,67.074598 66.669293,54.629197 66.2664,52.674598 c -0.489914,-2.37678 0.01987,-1.98887 -3.843098,-2.924243 -4.215068,-1.020627 -3.742537,-1.143881 -6.004073,1.566109 l -1.966512,2.356467 1.093641,3.602288 c 1.348445,4.441571 1.362842,4.024429 -0.239689,6.944327 l -1.333331,2.429398 0.830969,2.534742 0.830973,2.53474 -0.351674,-0.117223 c -0.19342,-0.06447 -0.545065,-0.68512 -0.78143,-1.379216 -0.236368,-0.694093 -0.505661,-1.468377 -0.598429,-1.720637 l -0.168672,-0.458646 -0.680851,0.680851 -0.680851,0.680851 1.238425,1.377796 c 0.681136,0.757788 3.33313,3.65846 5.893316,6.445936 L 64.16,82.296275 64.372112,80.908138 c 0.116662,-0.763476 0.681254,-6.988567 1.254646,-13.83354 z M 53.867565,65.472832 c 0.297513,-0.943827 0.899024,-2.243718 1.336685,-2.88865 0.9919,-1.461648 1.000556,-1.260307 -0.231469,-5.384332 L 53.945056,53.759702 53.452528,53.89295 C 53.181638,53.96624 52.24,54.123571 51.36,54.242576 l -1.6,0.216374 -2.817325,1.783095 -2.817325,1.783097 -0.424374,0.809946 -0.424374,0.809949 4.201699,4.554659 4.201699,4.554659 0.823312,-0.782736 0.823315,-0.782739 z M 51.915878,53.428205 54.071754,53.055738 55.835878,50.538144 57.6,48.020554 V 44.711878 41.4032 l -1.451299,-1.02297 -1.451299,-1.022969 -6.848474,4.46224 c -3.766662,2.454233 -7.990346,5.226851 -9.385965,6.161369 l -2.537491,1.69913 2.340186,2.512874 2.340188,2.51287 1.697076,0.216611 L 44,57.138963 l 2.88,-1.669142 2.88,-1.669146 z"
         id="path2812" />
      <path
         style="fill:#767676;fill-opacity:1;stroke-width:0.32"
         d="M 49.28,98.658915 36,88.596605 21.52,79.144038 7.04,69.691472 v -0.39488 c 0,-0.217181 0.756,-0.804346 1.68,-1.304806 1.560001,-0.844935 21.962516,-13.782349 38.617104,-24.487447 l 7.177104,-4.613241 0.662896,0.08505 0.662896,0.08505 6.812227,-5.290599 c 8.190839,-6.361275 5.966423,-6.721229 14.791843,2.393607 l 7.440218,7.684205 0.436733,-0.362455 0.436733,-0.362457 1.361123,1.225209 c 1.336185,1.202765 35.229303,32.338787 37.941343,34.854944 l 1.38359,1.283651 -9.86191,4.37482 -9.8619,4.374819 -0.16,2.279549 -0.16,2.279548 -2.11912,1.149447 -2.11912,1.149443 -1.08088,-0.819712 L 100,94.455504 95.76,96.399386 91.52,98.34327 v 1.070983 1.070987 l -2.365174,1.17032 -2.365175,1.17032 L 84.754826,101.3776 82.72,99.929315 82.08,100.19696 c -0.352,0.14721 -4.456,1.94476 -9.12,3.99456 -4.664,2.04981 -8.912,3.90755 -9.44,4.12831 l -0.96,0.4014 z m 23.84,4.695525 c 4.752,-2.14515 8.784,-4.036635 8.96,-4.203288 l 0.32,-0.303002 0.361059,-14.037776 0.361063,-14.037776 1.486892,-1.932329 c 0.817792,-1.062781 1.618666,-2.01377 1.779719,-2.113306 l 0.292825,-0.180976 1.859223,2.327005 L 90.4,71.2 l 0.164739,4.85807 c 0.188307,5.553076 0.0038,5.118884 2.444192,5.751453 l 1.871069,0.484995 1.630749,1.225924 1.630749,1.22592 0.226342,-10.575744 0.226339,-10.575744 1.458301,-1.797437 c 1.88287,-2.320752 1.64481,-2.341885 3.81025,0.338237 l 1.87347,2.318761 0.36292,11.777136 c 0.19961,6.477424 0.42096,11.833197 0.4919,11.901719 0.0709,0.06852 4.1973,-1.69744 9.16968,-3.924356 L 124.8014,80.16 122.3207,77.874618 C 120.95632,76.617661 112.208,68.467411 102.88,59.762954 l -16.96,-15.826288 -0.71463,1.369033 -0.714631,1.369034 1.514631,2.235859 1.51463,2.235859 4.100182,2.139923 c 2.255104,1.17696 4.029533,2.210576 3.943184,2.296928 -0.08635,0.08635 -1.967436,-0.803427 -4.180185,-1.977283 L 87.36,51.471731 v 3.683303 3.683302 l 0.325296,0.900832 0.325299,0.900832 -0.638653,-0.8 -0.638652,-0.8 0.199299,-3.867194 0.199302,-3.867193 -1.725945,-2.125911 -1.725946,-2.125913 -4.073181,-0.0069 -4.073184,-0.0069 -2.284345,2.852931 -2.284349,2.852934 -1.550695,0.644439 -1.550694,0.644441 -0.156627,0.742628 c -1.4532,6.890188 -4.631955,52.433618 -3.561731,51.030478 l 0.849827,-1.11418 0.883981,-5.226833 0.883977,-5.226838 1.367434,-2.48 c 0.752089,-1.364 1.438928,-2.48 1.526307,-2.48 0.08738,0 -0.445264,1.116 -1.183658,2.48 l -1.342531,2.48 -0.402198,2.487894 -0.402202,2.487898 0.676935,-0.206579 c 0.372313,-0.113616 1.506755,-0.539821 2.520979,-0.94712 l 1.844041,-0.740544 1.040442,0.168841 1.040442,0.168842 1.055398,-1.469616 c 0.58047,-0.808288 1.12695,-1.469616 1.2144,-1.469616 0.207882,0 -0.114899,0.558918 -1.063699,1.841881 l -0.770512,1.041885 0.196608,0.318115 c 0.108134,0.174967 0.500109,0.318119 0.871053,0.318119 0.370947,0 0.589868,0.08458 0.486492,0.187955 -0.103376,0.103376 -1.008867,0.01754 -2.012204,-0.190755 l -1.82425,-0.378714 -2.655437,1.026608 -2.655433,1.026611 -0.167802,0.684146 c -0.09229,0.37628 -0.266582,1.44149 -0.387312,2.36713 l -0.219514,1.68298 -0.93776,1.47869 -0.93776,1.4787 0.41938,-0.17431 C 64.29128,107.33317 68.368,105.49961 73.12,103.35444 Z M 64.584336,79.498115 66.725008,54.516234 66.305814,52.626688 c -0.50071,-2.256989 -0.273859,-2.093757 -4.19686,-3.019853 -3.785421,-0.893616 -3.607168,-0.949193 -5.884903,1.834877 l -1.825747,2.231603 1.150877,3.796381 1.150873,3.796381 -1.354454,2.763305 -1.354458,2.763303 0.70392,2.317501 c 0.86281,2.840617 0.688925,3.280972 -0.276352,0.699849 L 53.711597,67.919229 50.948211,70.839616 48.184826,73.76 46.892413,74.155142 c -1.882736,0.575629 -2.156285,0.459853 -0.49993,-0.21159 l 1.43248,-0.580691 2.803549,-3.161431 2.803549,-3.16143 0.636493,-1.87999 c 0.350067,-1.033994 0.988684,-2.341741 1.419142,-2.906103 l 0.782653,-1.026112 -1.153338,-3.728377 -1.153337,-3.728381 -1.301837,0.185414 c -2.466144,0.351239 -3.389539,0.716973 -6.104071,2.41768 L 43.835002,58.08 43.310035,59.450451 c -0.774659,2.022288 -1.141641,1.977872 -0.44272,-0.05359 L 43.467357,57.652816 41.89368,57.436381 C 41.028157,57.317341 40.32,57.113558 40.32,56.983533 v -0.23641 l 1.84,0.253603 1.84,0.253607 2.72,-1.63249 2.72,-1.632493 2.369418,-0.514675 2.369414,-0.514675 1.669645,-2.4 1.669645,-2.4 0.207456,-3.36 0.207456,-3.36 -1.633965,-1.060624 -1.633965,-1.060621 -8.052554,5.23968 C 42.183648,47.440256 32.287146,53.893536 24.620322,58.899056 L 10.680644,68 l 0.659678,0.511677 c 14.579278,11.308381 37.873476,29.227296 38.241752,29.417229 5.337491,2.752714 6.223161,2.734364 5.267123,-0.109127 l -0.824736,-2.452957 0.553968,-1.450544 c 0.690253,-1.807398 0.929373,-1.67808 0.41983,0.227044 l -0.38231,1.429417 0.921552,2.533629 0.921552,2.533632 1.610473,1.4882 1.610474,1.48821 0.168835,-2.12821 0.168835,-2.1282 0.274874,2.6674 0.274877,2.66739 0.836288,0.99798 0.836291,0.99798 0.10183,-1.10538 c 0.05601,-0.60795 1.065133,-12.347216 2.242506,-26.087255 z m 24.51136,21.312795 2.115354,-0.949102 -0.157047,-1.210902 c -0.08638,-0.666 -0.401917,-6.998295 -0.7012,-14.07177 L 89.80865,71.718269 88.824326,71.862275 87.84,72.006282 88.712195,71.659075 89.584394,71.311869 88.232195,69.517149 86.88,67.722426 86.72,69.687629 C 86.540502,71.89232 86.670224,101.76 86.859296,101.76 c 0.06658,0 1.072954,-0.42709 2.2364,-0.94909 z M 104.31522,94.16 l 1.59556,-0.88 0.0106,-2.08 c 0.006,-1.144 -0.16311,-7.589133 -0.3754,-14.322518 L 105.16,64.634963 l -0.65999,0.183482 -0.66,0.183478 0.44961,-0.310505 0.44961,-0.310509 -1.24821,-1.7004 -1.2482,-1.7004 -0.20355,0.949945 c -0.29531,1.37826 -0.31842,3.349968 -0.0393,3.349812 l 0.24,-1.32e-4 -0.10036,11.600132 C 102.04931,87.315994 102.24114,95.04 102.5906,95.04 c 0.071,0 0.84704,-0.396 1.72459,-0.88 z"
         id="path2810" />
      <path
         style="fill:#606060;fill-opacity:1;stroke-width:0.32"
         d="M 50.4,99.455219 C 43.888,94.508384 31.960253,85.426198 23.893896,79.272589 L 9.2277926,68.084208 9.4938963,67.836326 C 9.6402534,67.69999 17.392,62.702138 26.72,56.729987 36.048,50.757834 46.10625,44.310813 49.071667,42.403274 l 5.391667,-3.468253 0.848333,-0.03542 L 56.16,38.86417 62.83944,33.672083 C 66.513133,30.816438 69.612947,28.48 69.727914,28.48 c 0.114966,0 3.56894,3.460582 7.6755,7.690182 l 7.466471,7.690183 0.437165,-0.362813 0.437161,-0.362813 1.726221,1.552631 C 88.419853,45.541315 97.567315,53.944 107.79812,63.36 l 18.60148,17.12 -0.5598,0.244733 c -0.30789,0.134601 -4.7358,2.098419 -9.8398,4.364035 l -9.28,4.119306 -0.0941,2.27903 -0.0941,2.279034 -2.24408,1.130099 -2.24408,1.130096 -0.96893,-0.815306 C 100.54183,94.762608 100.01,94.442058 99.892906,94.498688 99.775808,94.555322 97.844,95.444349 95.6,96.474307 l -4.08,1.872653 v 1.069139 1.069141 l -2.368694,1.17206 -2.368698,1.17206 -1.983997,-1.47433 -1.983997,-1.474329 -0.847305,0.320689 c -0.466019,0.17637 -4.884983,2.11121 -9.819917,4.29964 -4.934934,2.18844 -9.182934,3.9721 -9.44,3.9637 C 62.450326,108.45635 56.912,104.40205 50.4,99.455219 Z m 23.12,3.741571 9.04,-4.084118 0.0016,-3.396336 c 9.6e-4,-1.867984 0.149386,-8.277635 0.330112,-14.24367 l 0.328598,-10.847335 1.61744,-2.032665 c 1.943952,-2.442996 1.491504,-2.455652 3.498218,0.09784 l 1.674301,2.130505 0.267273,1.149495 c 0.147002,0.632221 0.270711,2.895859 0.274909,5.03031 l 0.0076,3.880816 0.4,0.317277 c 0.22,0.174499 1.192,0.502288 2.16,0.728419 l 1.76,0.411143 1.6,1.218604 1.6,1.218608 0.195731,-5.187843 c 0.107652,-2.853315 0.215652,-7.582518 0.24,-10.509341 l 0.04417,-5.321497 1.458688,-1.878503 c 1.80557,-2.325225 1.70921,-2.332124 3.78362,0.270909 l 1.71291,2.149411 0.19276,2.170589 c 0.10602,1.193824 0.2867,6.418589 0.40153,11.610589 0.11483,5.192 0.30141,9.613805 0.41465,9.826234 l 0.20588,0.386233 8.94278,-4.000704 c 4.91854,-2.20039 8.98085,-4.038768 9.02737,-4.085283 0.0465,-0.04652 -7.71865,-7.348003 -17.25592,-16.22553 C 97.906992,55.103427 89.130947,46.926829 87.941946,45.81073 l -2.161824,-2.029271 -0.689866,1.419955 -0.689866,1.419952 1.559805,2.281204 1.559805,2.281203 3.12,1.622166 c 1.716,0.892189 3.12,1.689152 3.12,1.771031 0,0.08187 -1.44,-0.57376 -3.2,-1.45697 l -3.2,-1.605834 v 3.863952 3.863956 L 87.697654,59.941037 88.035306,60.64 87.537654,60.018838 87.04,59.397677 v -4.12232 -4.122323 l -1.68,-2.05224 -1.68,-2.05224 -4.067267,-0.0043 -4.067267,-0.0043 -2.101524,2.64 -2.10152,2.64 -1.831212,0.96 -1.83121,0.96 -2.30023,25.28 c -1.265127,13.904 -2.309127,25.770316 -2.32,26.369596 l -0.01978,1.0896 0.672761,-0.60884 c 1.138506,-1.03033 1.456925,-2.03891 2.213258,-7.010356 0.64656,-4.24992 1.271078,-6.56 1.773456,-6.56 0.08967,0 -0.01414,0.324 -0.230695,0.72 -0.387596,0.708777 -1.269068,5.411433 -1.056096,5.634284 0.06007,0.06286 1.232202,-0.313219 2.604736,-0.835731 l 2.495514,-0.950016 0.872867,0.250333 0.872871,0.250336 0.998179,-1.174602 0.998182,-1.174604 -0.687753,1.037817 -0.687751,1.037815 0.214407,0.346915 0.214403,0.346915 -1.473507,-0.220966 -1.473511,-0.220967 -2.563923,1.03352 -2.56392,1.033517 -0.148227,0.68272 c -0.08153,0.3755 -0.296931,1.54672 -0.478679,2.60272 l -0.330448,1.92 -0.578588,0.8 c -0.318221,0.44 -0.700973,1.00447 -0.850557,1.25438 l -0.271968,0.45438 0.452496,-0.17393 c 0.24887,-0.0957 4.520493,-2.01178 9.492493,-4.25805 z M 59.147958,104.24 57.16393,101.6 55.136451,100.67218 C 54.021338,100.16188 53.17007,99.683261 53.244749,99.608586 53.319424,99.533907 53.83929,99.710045 54.4,100 c 1.425613,0.73721 1.483107,0.49836 0.527782,-2.19265 l -0.841411,-2.370121 0.353811,-1.014951 c 0.194599,-0.55822 0.413194,-0.955568 0.48577,-0.882992 0.07258,0.07257 -0.0092,0.50321 -0.181715,0.956964 l -0.313667,0.825011 0.935798,2.56415 0.935798,2.564149 1.768916,1.71333 1.768918,1.71333 0.04495,-1.93811 L 59.9299,100 l 0.355049,2.47541 0.35505,2.47541 0.88,0.87732 0.88,0.87732 0.01328,-0.79273 c 0.0073,-0.436 0.99385,-12.16873 2.192326,-26.07273 l 2.17905,-25.28 -0.512326,-2.061274 -0.512327,-2.061273 -3.61359,-0.852426 -3.613587,-0.852429 -1.677162,1.953703 c -0.922438,1.074534 -1.858931,2.192416 -2.081094,2.484179 l -0.403936,0.530483 1.160208,3.848643 1.160204,3.848644 -1.385158,2.555929 -1.385158,2.55593 0.527267,1.864947 c 0.918765,3.249674 0.945117,3.513958 0.154035,1.544944 -0.934496,-2.325971 -0.630474,-2.407437 -3.873891,1.038032 l -2.670557,2.836915 -1.212518,0.372135 c -1.62536,0.498835 -1.740452,0.276604 -0.180084,-0.347732 l 1.25153,-0.500761 2.711859,-3.040071 2.711859,-3.04007 0.69185,-1.897462 c 0.380515,-1.043604 1.047075,-2.420916 1.481242,-3.060698 l 0.789395,-1.163235 -1.123799,-3.584301 C 53.829565,53.22905 54.265341,53.666992 51.734579,54.07128 l -2.106806,0.336566 -2.812307,1.765728 -2.812304,1.765732 -0.70712,1.350348 c -0.828186,1.58154 -0.94857,1.457162 -0.237293,-0.245161 0.589184,-1.410119 0.666278,-1.293328 -1.138746,-1.72512 l -1.44,-0.344474 1.806986,0.151466 1.806985,0.151465 2.879815,-1.701734 2.879814,-1.701731 2.1932,-0.399018 2.1932,-0.399017 1.753181,-2.57234 1.753181,-2.572336 0.111488,-3.245827 L 57.969341,41.44 56.363114,40.362502 54.75689,39.285005 53.538445,40.033837 C 50.772816,41.733539 10.849836,67.814758 10.78761,67.962464 10.750424,68.050726 21.664,76.570928 35.04,86.89624 c 13.376,10.325312 24.604,19.04565 24.95111,19.37853 1.397034,1.33975 1.033421,0.46224 -0.843152,-2.03477 z m 27.49738,-15.68 c 0.04107,7.26 0.149824,13.2 0.241689,13.2 0.09186,0 1.101347,-0.42364 2.243293,-0.94142 l 2.076269,-0.941431 -0.174051,-2.658573 C 90.79641,93.611853 89.92,74.464749 89.92,72.912768 v -1.24496 l -0.88,0.173456 -0.88,0.173456 0.756525,-0.33056 0.756528,-0.33056 -0.302899,-0.3968 C 89.203558,70.73856 88.57512,69.931158 87.973626,69.162579 L 86.88,67.765155 86.688061,69.162579 86.496125,70.56 l -0.04893,-1.44 -0.04893,-1.44 -1.265491,1.44 c -1.563376,1.778966 -1.563066,1.700918 -0.0095,2.401472 0.705792,0.318269 1.227622,0.63431 1.159616,0.702314 -0.068,0.06801 -0.643664,-0.124336 -1.279245,-0.427421 -1.527421,-0.728378 -1.371779,-2.038 -1.625271,13.675677 l -0.225068,13.952044 1.54335,1.143364 1.543354,1.14337 0.165337,-13.175412 0.165338,-13.175408 0.07466,13.2 z m 17.834662,5.586157 1.6,-0.878896 -0.0724,-1.913632 c -0.0398,-1.052496 -0.24121,-7.456263 -0.44754,-14.230595 l -0.37516,-12.316964 -1.55246,-2.050758 -1.55246,-2.050755 -0.0347,0.607721 c -0.0191,0.334247 -0.0399,7.735722 -0.0463,16.447722 l -0.0116,15.84 -0.22922,-15.84 c -0.12607,-8.712 -0.24922,-16.040266 -0.27368,-16.285034 L 101.44,61.029933 100.32581,62.434966 99.211616,63.84 99.925808,64.421475 100.64,65.002954 99.941037,64.661475 C 99.556608,64.473664 99.160608,64.32 99.061037,64.32 98.961466,64.32 98.88,69.044918 98.88,74.819821 v 10.499821 l 0.96,0.70976 0.96,0.709756 v 3.814522 3.814518 l 0.56,0.32617 c 0.85631,0.498755 1.38227,0.406339 3.12,-0.548211 z"
         id="path2808" />
      <path
         style="fill:#494949;fill-opacity:1;stroke-width:0.32"
         d="M 50.08,99.171184 C 43.392,94.071219 31.477368,84.983485 23.603039,78.976214 L 9.286079,68.05391 l 1.51696,-1.012521 c 0.834329,-0.556887 10.994015,-7.099443 22.577083,-14.539015 l 21.060118,-13.526496 0.585568,0.15313 0.585565,0.15313 6.951821,-5.401069 C 66.386698,30.910481 69.596058,28.48 69.69511,28.48 c 0.09905,0 3.549696,3.454899 7.6681,7.677552 l 7.488006,7.677555 0.534394,-0.282768 0.53439,-0.282765 20,18.396759 c 11,10.118221 20.0415,18.507056 20.09221,18.641859 0.0507,0.134803 -4.26928,2.184426 -9.6,4.554714 l -9.69221,4.309616 -0.0941,2.296806 -0.0941,2.29681 -2.26413,1.140195 -2.26413,1.140195 -0.91577,-0.87737 -0.91578,-0.877369 -0.726014,0.331597 C 99.046707,94.805766 97.1,95.715222 95.12,96.6444 l -3.6,1.689418 v 1.063401 1.063401 l -2.458269,1.13579 -2.458265,1.13579 -1.891527,-1.4689 c -1.040339,-0.8079 -2.058118,-1.404401 -2.261734,-1.325559 -0.203613,0.07884 -4.651335,2.033099 -9.883827,4.342799 -5.232493,2.30971 -9.696493,4.19133 -9.92,4.18138 C 62.42287,108.45198 56.768,104.27115 50.08,99.171184 Z m 26.08,2.906466 c 3.256,-1.46262 6.012118,-2.744437 6.124707,-2.848482 0.112586,-0.104042 0.372887,-6.576797 0.578445,-14.383898 L 83.23689,70.650541 84.875866,68.60527 c 1.963609,-2.450377 1.428307,-2.499667 3.596556,0.331175 l 1.820208,2.376441 0.181917,4.984212 0.181914,4.984208 1.311769,0.334995 c 2.428029,0.620057 3.120644,0.925069 4.650103,2.047795 l 1.523296,1.118202 0.209187,-4.361744 C 98.465866,78.021594 98.56,73.29368 98.56,69.91408 v -6.144726 l 1.52,-1.949117 c 1.80806,-2.318493 1.53031,-2.346599 3.69299,0.373715 l 1.74422,2.193952 0.19652,3.246048 c 0.10808,1.785328 0.29188,7.170048 0.40844,11.966048 0.11656,4.796 0.31896,8.72 0.44977,8.72 0.22833,0 16.91586,-7.451094 17.8171,-7.955456 l 0.43872,-0.24552 -17.85388,-16.613862 C 97.154246,54.367539 88.36967,46.189232 87.452602,45.331149 l -1.667399,-1.560147 -0.697027,1.434691 -0.697027,1.434691 1.564425,2.304038 L 87.52,51.248458 90,52.507802 c 1.364,0.692636 2.48,1.33134 2.48,1.41934 0,0.088 -1.163293,-0.424892 -2.585094,-1.13976 l -2.585095,-1.29976 0.105095,4.307312 L 87.52,60.10225 87.284899,59.731123 c -0.129305,-0.204118 -0.237305,-2.224717 -0.24,-4.490224 L 87.04,51.121802 85.384125,49.080899 83.728253,47.04 79.544125,47.055328 75.36,47.070656 73.177011,49.846867 70.994019,52.623078 69.337011,53.321389 67.68,54.019702 67.578486,55.089853 c -1.545068,16.288163 -4.672016,52.105737 -4.547878,52.093637 0.09316,-0.009 0.637392,-0.60065 1.209392,-1.3146 1.307821,-1.63237 1.350842,-1.31599 0.0735,0.54056 l -0.966499,1.40475 3.446499,-1.53861 c 1.895575,-0.84625 6.1105,-2.73531 9.3665,-4.19794 z m -16.871722,2.24 c -1.187433,-1.58529 -2.388902,-2.95533 -2.669932,-3.04452 l -0.51096,-0.16218 -1.017261,-2.925241 c -0.559491,-1.608883 -0.961792,-2.980707 -0.894003,-3.048499 0.06779,-0.06779 0.528998,1.042297 1.024905,2.46686 l 0.901645,2.59012 1.858666,1.92323 1.858662,1.92324 0.04324,-1.70033 0.04324,-1.70033 0.356762,2.104 0.356758,2.104 0.88,1.04055 c 0.484,0.57231 0.880131,0.9215 0.880288,0.776 1.6e-4,-0.1455 0.997715,-11.953612 2.216787,-26.240246 l 2.216496,-25.975699 -0.421437,-1.812951 c -0.231788,-0.997123 -0.54534,-1.927392 -0.696784,-2.06726 -0.260636,-0.240717 -7.231024,-1.993584 -7.319248,-1.840596 -0.02291,0.03971 -0.939862,1.129738 -2.037689,2.422282 l -1.996051,2.350083 0.175052,1.009917 0.175053,1.00992 -0.342899,-0.88 C 53.984995,53.653053 53.97176,53.650387 51.481619,54.058304 l -1.798377,0.294595 -2.938036,1.826029 -2.938035,1.826026 -0.468281,0.997523 c -0.454896,0.969008 -0.457296,0.774125 -0.0081,-0.660746 l 0.218579,-0.698265 -1.374669,-0.327853 -1.374666,-0.327853 1.668471,0.174563 1.668473,0.174563 2.688148,-1.623718 2.688144,-1.623718 2.34535,-0.49336 c 1.289942,-0.271348 2.368032,-0.525472 2.395754,-0.564724 0.02771,-0.03925 0.863833,-1.242259 1.858032,-2.67335 L 57.92,47.756032 V 44.579616 41.4032 L 56.470643,40.3816 C 55.673498,39.819722 54.889373,39.36 54.728141,39.36 c -0.161229,0 -5.737018,3.546061 -12.390643,7.880131 -6.653623,4.334074 -16.534167,10.764263 -21.956764,14.289306 l -9.859266,6.409174 0.419266,0.390151 C 11.171331,68.543344 22.232,77.104768 35.52,87.354147 c 13.288,10.249379 24.444,18.907623 24.79111,19.240543 1.428349,1.36995 1.00808,0.43434 -1.022832,-2.27704 z M 86.647632,92.88 86.72,101.76 h 0.329126 c 0.181018,0 1.197248,-0.43823 2.258292,-0.97384 l 1.929164,-0.97384 -0.186204,-2.94616 C 90.947968,95.245773 90.642717,88.952 90.372045,82.88 L 89.879914,71.84 89.577965,71.732669 c -0.166074,-0.05903 -0.241027,-0.205911 -0.166567,-0.326394 0.07446,-0.120483 -0.50064,-1.069277 -1.278006,-2.108429 L 86.72,67.408474 86.6881,68.344237 86.6562,69.28 86.439467,68.504554 86.222734,67.729107 84.923563,69.360794 83.624395,70.99248 83.412731,81.33624 c -0.116413,5.689069 -0.211904,12.101165 -0.212198,14.249101 l -6.4e-4,3.905344 1.52,1.160955 1.52,1.16096 0.167632,-8.906302 L 86.575152,84 l 0.07236,8.88 z m 17.845498,1.283424 1.78731,-0.876579 -0.1812,-3.043421 C 105.99957,88.569539 105.75944,82.16 105.5656,76 l -0.35243,-11.2 -1.48658,-1.961501 c -1.76271,-2.325837 -1.94938,-2.298105 -2.02182,0.300387 l -0.0552,1.981114 -0.18477,-2.031222 -0.18477,-2.031226 -0.8,1.057792 c -0.44,0.581782 -0.974896,1.351834 -1.188659,1.711222 L 98.902678,64.48 l -0.01133,10.453309 -0.01133,10.453312 0.807533,0.588243 0.807529,0.588246 0.19601,3.838445 0.19601,3.838445 0.31565,0.4 c 0.48031,0.608678 1.32792,0.485914 3.2904,-0.476576 z"
         id="path2806" />
      <path
         style="fill:#333333;fill-opacity:1;stroke-width:0.32"
         d="m 61.824,108.096 c -0.2112,-0.2112 -0.384,-0.50059 -0.384,-0.64309 0,-0.36937 -3.471469,-5.10279 -4.233824,-5.77291 -0.350394,-0.308 -0.49447,-0.56 -0.320176,-0.56 0.174298,0 0.847891,0.648 1.496877,1.44 1.479981,1.80612 1.636061,1.79812 1.560934,-0.08 l -0.0608,-1.52 0.320992,1.95904 0.320992,1.95903 0.903712,1.08097 0.903712,1.08096 0.201079,-1.76 C 62.64409,104.312 63.66689,92.473427 64.806387,78.972058 L 66.878198,54.424115 66.419885,52.45951 c -0.555792,-2.382467 0.01971,-1.98328 -4.312867,-2.991484 l -3.652983,-0.850061 -0.207897,0.251017 c -0.114346,0.138061 -1.026503,1.202989 -2.027018,2.366506 -1.000515,1.16352 -1.820429,2.24352 -1.822029,2.4 l -0.0029,0.284512 -1.997088,0.04161 -1.997091,0.04161 1.28,-0.29977 c 0.704,-0.164874 1.574752,-0.359002 1.935005,-0.431398 l 0.655008,-0.131626 1.824992,-2.659283 1.824995,-2.659283 V 44.605181 41.388493 L 56.507718,40.374246 C 55.730915,39.81641 54.936669,39.36 54.742694,39.36 c -0.37263,0 -2.504227,1.36639 -25.462694,16.322016 -7.92,5.159251 -15.372,10.012378 -16.56,10.784726 -1.188,0.772346 -2.16,1.460333 -2.16,1.528861 0,0.06852 11.016,8.638506 24.48,19.044397 13.464,10.405891 24.48,18.98852 24.48,19.07252 0,0.084 -3.280058,-2.33697 -7.289018,-5.37991 C 22.514304,78.17664 9.6522269,68.277818 9.7215696,68.016819 9.7658723,67.85007 19.800643,61.26537 32.021059,53.384147 L 54.24,39.054656 l 0.709677,0.106323 0.709673,0.106323 6.670928,-5.178057 c 3.669012,-2.84793 6.83474,-5.279297 7.034954,-5.403035 l 0.364022,-0.22498 7.572647,7.680696 7.572643,7.680698 0.52273,-0.268083 0.522726,-0.268083 20,18.403376 c 11,10.121856 20.04027,18.503193 20.08948,18.6252 0.0834,0.206768 -19.32313,8.974646 -19.84948,8.967996 l -0.24,-0.003 0.0699,-4.72 0.0699,-4.72 0.0994,4.24 0.0994,4.24 h 0.30942 c 0.35933,0 17.62345,-7.677568 18.01273,-8.010483 l 0.26073,-0.222979 -18.34073,-17.052906 C 96.413328,53.654534 87.628362,45.478003 86.978579,44.863562 l -1.181421,-1.117165 -0.696502,1.433609 -0.696499,1.433607 1.49696,2.251219 1.49696,2.251222 0.06096,4.331476 0.06096,4.331475 -0.24,-0.148387 c -0.132,-0.08161 -0.24,-2.048496 -0.24,-4.370852 V 51.037302 L 85.403184,49.03865 83.766365,47.04 79.563184,47.0436 75.36,47.0472 73.167997,49.795379 70.975994,52.543562 69.247997,53.307763 67.52,54.071965 67.5128,54.796 c -0.0039,0.398221 -1.066122,12.316035 -2.360413,26.484035 -2.611593,28.587945 -2.530089,26.480005 -0.957869,24.773325 l 1.154583,-1.25333 -0.777248,1.12 c -0.427485,0.616 -0.882522,1.29836 -1.011191,1.51634 l -0.233948,0.39633 0.57662,-0.21972 C 64.220522,107.4921 68.512,105.56799 73.44,103.33714 l 8.96,-4.056094 0.219245,-5.720521 c 0.120585,-3.146288 0.31679,-9.568221 0.436009,-14.270963 l 0.216762,-8.550439 1.428998,-1.849561 c 0.785949,-1.017258 1.537949,-1.962567 1.671114,-2.100685 l 0.242118,-0.251123 1.800215,2.350339 1.800214,2.350339 0.252663,5.081171 0.252662,5.081175 2.119677,0.534163 2.119677,0.534163 1.560323,1.193005 1.560323,1.193005 0.216282,-1.387559 c 0.118953,-0.763155 0.226953,-5.476288 0.24,-10.473629 L 98.56,63.90785 l 1.52,-2.01817 c 1.80515,-2.396774 1.52792,-2.419056 3.6866,0.296259 l 1.73784,2.185939 0.20778,3.864301 c 0.11428,2.125367 0.18569,5.605693 0.1587,7.734061 l -0.0491,3.86976 -0.27231,-7.476653 -0.2723,-7.476653 -1.50034,-2.043347 C 101.93837,60.339402 101.77352,60.3232 101.70784,62.64 l -0.0522,1.84 -0.18784,-1.732106 -0.18784,-1.732108 -1.2,1.544624 -1.2,1.54462 v 10.660109 10.660106 l 0.773648,0.506915 0.773642,0.506912 0.10636,3.849434 0.10635,3.849433 0.73974,0.598307 0.73974,0.598311 2.04567,-1.008765 2.04567,-1.008765 0.11539,-1.618515 0.1154,-1.618512 0.0592,1.835978 0.0592,1.835977 -2.27821,1.147287 -2.27821,1.147286 -0.90916,-0.871034 -0.90916,-0.871033 -4.25263,1.936537 -4.25263,1.936541 -0.09559,1.088775 -0.09559,1.088776 -2.401271,1.18818 -2.401273,1.18818 -1.878829,-1.44573 C 82.499526,99.509827 84.179994,99.108544 72.77071,104.16 62.592998,108.66618 62.446758,108.71876 61.824,108.096 Z m 27.376,-7.20717 2,-0.87125 v -1.17455 -1.174556 l 0.48,-0.184196 0.48,-0.184192 v -3.527619 -3.527619 l 1.485024,-2.064301 1.485024,-2.064304 1.874976,0.946487 1.874976,0.946483 v 3.069629 3.069632 l 0.506173,-0.194237 C 99.664566,93.847405 99.952566,93.76 100.02617,93.76 c 0.0736,0 0.13383,-1.58297 0.13383,-3.517712 V 86.724576 L 97.777034,84.962288 C 94.888842,82.826368 95.36471,82.790275 93.58808,85.28 c -1.881194,2.636256 -2.148403,2.685219 -0.499299,0.09149 1.491513,-2.345872 1.530326,-2.212141 -0.864013,-2.977184 l -1.89064,-0.604102 -0.190806,-4.88576 -0.190807,-4.88576 -0.382579,-0.729341 C 88.975411,70.155952 86.72,67.393098 86.72,67.798198 86.72,67.99719 86.564365,68.124 86.374141,68.08 86.18392,68.036 85.473584,68.648 84.795616,69.44 l -1.232669,1.44 -0.191225,12.64 c -0.105178,6.952 -0.262928,13.317421 -0.350557,14.145379 l -0.159328,1.505379 1.637817,1.294622 c 1.941184,1.53442 2.114263,1.55001 4.700346,0.42345 z M 72,49.231715 c 0.792,-0.552473 1.872,-1.390253 2.4,-1.861734 l 0.96,-0.857242 3.500147,-0.573984 c 3.858167,-0.632694 5.377997,-1.065917 5.234394,-1.492051 C 83.952637,44.025606 70.384954,30.08 70.117174,30.08 c -0.127276,0 -0.480947,3.852 -0.785929,8.56 -0.304983,4.708 -0.644301,9.64 -0.754039,10.96 L 68.377677,52 69.468838,51.118106 C 70.068979,50.633062 71.208,49.784186 72,49.231715 Z"
         id="path2804" />
    </g>
  </g>
</svg>
